<svg xmlns="http://www.w3.org/2000/svg" viewBox="0 0 800 600"><defs><linearGradient id="bg" x1="0" y1="0" x2="0" y2="1"><stop stop-color="#0b0d0f"/><stop offset="1" stop-color="#090b0d"/></linearGradient></defs><rect width="800" height="600" fill="url(#bg)"/><rect x="75" y="100" width="650" height="400" rx="20" fill="#111417" stroke="#b8ff5a" stroke-width="7"/><g transform="translate(120 150)"><rect x="0" y="110" width="155" height="130" rx="18" fill="#f4f4f2"/><rect x="22" y="70" width="110" height="55" rx="8" fill="#e2e4e4"/><rect x="35" y="35" width="85" height="45" rx="8" fill="#30343a"/><text x="78" y="190" text-anchor="middle" fill="#25282c" font-size="18" font-weight="700">ADHESIVE</text></g><g transform="translate(315 145)"><rect x="0" y="75" width="125" height="210" rx="30" fill="#f0f1ef"/><rect x="18" y="30" width="90" height="60" rx="10" fill="#2b3035"/><path d="M62 30 V5 H85 V30" fill="#e0e2e1"/><text x="62" y="175" text-anchor="middle" fill="#25282c" font-size="16" font-weight="700">FIX</text></g><g transform="translate(510 175)"><rect x="0" y="90" width="150" height="80" rx="35" fill="#f3f3f1"/><rect x="115" y="105" width="50" height="50" rx="12" fill="#d9dcdd"/><text x="72" y="137" text-anchor="middle" fill="#25282c" font-size="15" font-weight="700">ADHESIVE</text></g><text x="400" y="555" text-anchor="middle" fill="#f4f6f7" font-family="Arial,Helvetica,sans-serif" font-size="22" font-weight="700" letter-spacing="2">GLUE &AMP; ADHESIVES</text></svg>